<?xml version="1.0" encoding="UTF-8" standalone="no"?>
<svg
   xmlns:dc="http://purl.org/dc/elements/1.1/"
   xmlns:cc="http://creativecommons.org/ns#"
   xmlns:rdf="http://www.w3.org/1999/02/22-rdf-syntax-ns#"
   xmlns:svg="http://www.w3.org/2000/svg"
   xmlns="http://www.w3.org/2000/svg"
   xmlns:sodipodi="http://sodipodi.sourceforge.net/DTD/sodipodi-0.dtd"
   xmlns:inkscape="http://www.inkscape.org/namespaces/inkscape"
   sodipodi:docname="AddChild.svg"
   inkscape:version="1.0 (4035a4fb49, 2020-05-01)"
   id="svg8"
   version="1.1"
   viewBox="0 0 210 297"
   height="297mm"
   width="210mm">
  <defs
     id="defs2" />
  <sodipodi:namedview
     inkscape:window-maximized="0"
     inkscape:window-y="615"
     inkscape:window-x="1379"
     inkscape:window-height="1198"
     inkscape:window-width="1694"
     showgrid="false"
     inkscape:document-rotation="0"
     inkscape:current-layer="layer1"
     inkscape:document-units="mm"
     inkscape:cy="350.79208"
     inkscape:cx="303.22839"
     inkscape:zoom="1.4"
     inkscape:pageshadow="2"
     inkscape:pageopacity="0.0"
     borderopacity="1.0"
     bordercolor="#666666"
     pagecolor="#ffffff"
     id="base" />
  <metadata
     id="metadata5">
    <rdf:RDF>
      <cc:Work
         rdf:about="">
        <dc:format>image/svg+xml</dc:format>
        <dc:type
           rdf:resource="http://purl.org/dc/dcmitype/StillImage" />
        <dc:title></dc:title>
      </cc:Work>
    </rdf:RDF>
  </metadata>
  <g
     id="layer1"
     inkscape:groupmode="layer"
     inkscape:label="Layer 1">
    <rect
       y="52.117558"
       x="36.883194"
       height="3.2072344"
       width="39.823158"
       id="rect833"
       style="fill:#7bf07b;stroke:#000000;stroke-width:0.206;fill-opacity:1" />
    <path
       sodipodi:nodetypes="ccccc"
       id="path854"
       d="M 75.529811,62.954884 56.861592,58.364951 c -6.090429,1.529978 -12.445479,3.059955 -18.668218,4.589933 l 18.656668,-7.270136 z"
       style="font-variation-settings:normal;opacity:1;vector-effect:none;fill:#7bf07b;fill-opacity:1;stroke:#000000;stroke-width:0.105833;stroke-linecap:butt;stroke-linejoin:miter;stroke-miterlimit:4;stroke-dasharray:none;stroke-dashoffset:0;stroke-opacity:1;stop-color:#000000;stop-opacity:1" />
    <rect
       transform="scale(1,-1)"
       style="fill:#7bf07b;stroke:#000000;stroke-width:0.206;fill-opacity:1"
       id="rect833-1"
       width="39.823158"
       height="3.2072344"
       x="37.01683"
       y="-77.667618" />
    <path
       style="font-variation-settings:normal;opacity:1;vector-effect:none;fill:#7bf07b;fill-opacity:1;stroke:#000000;stroke-width:0.105833;stroke-linecap:butt;stroke-linejoin:miter;stroke-miterlimit:4;stroke-dasharray:none;stroke-dashoffset:0;stroke-opacity:1;stop-color:#000000;stop-opacity:1"
       d="m 75.663446,66.830292 -18.66822,4.589934 C 50.904797,69.890248 44.549747,68.360271 38.327008,66.830292 l 18.656668,7.270137 z"
       id="path854-0"
       sodipodi:nodetypes="ccccc" />
    <path
       sodipodi:nodetypes="ccccc"
       id="path854-0-5"
       d="m 140.9719,65.467975 -8.5821,4.602919 c -2.79988,-1.534307 -5.7214,-3.068612 -8.58211,-4.602919 l 8.5768,7.290704 z"
       style="font-variation-settings:normal;opacity:1;vector-effect:none;fill:#7bf37b;fill-opacity:1;stroke:#000000;stroke-width:0.0718588;stroke-linecap:butt;stroke-linejoin:miter;stroke-miterlimit:4;stroke-dasharray:none;stroke-dashoffset:0;stroke-opacity:1;stop-color:#000000;stop-opacity:1" />
    <path
       sodipodi:nodetypes="ssccsscccss"
       id="path906"
       d="m 130.79459,60.616193 c -0.251,-0.230536 -1.655,-0.648038 -2.69036,-0.648123 l -18.5708,-0.0015 0.0126,-2.009013 c 4.22907,-0.130338 18.3408,-0.0576 18.63659,-0.05429 2.00832,0.02249 3.1844,0.332185 4.15853,0.989628 0.91361,0.616598 1.44473,1.607386 1.45242,2.939958 0.001,2.347823 -5.8e-4,6.147311 -5.8e-4,6.147311 h -2.19517 l 0.0722,-5.561164 c 0.0119,-0.917319 -0.54315,-1.497593 -0.87544,-1.802783 z"
       style="font-variation-settings:normal;opacity:1;vector-effect:none;fill:#7bf37b;fill-opacity:1;stroke:#000000;stroke-width:0.105833;stroke-linecap:butt;stroke-linejoin:miter;stroke-miterlimit:4;stroke-dasharray:none;stroke-dashoffset:0;stroke-opacity:1;stop-color:#000000;stop-opacity:1" />
    <rect
       style="fill:#cfcfcf;fill-opacity:1;stroke:#000000;stroke-width:0.206"
       id="rect833-6"
       width="39.823158"
       height="3.2072344"
       x="37.38689"
       y="95.137169" />
    <path
       style="font-variation-settings:normal;opacity:1;vector-effect:none;fill:#cfcfcf;fill-opacity:1;stroke:#000000;stroke-width:0.105833;stroke-linecap:butt;stroke-linejoin:miter;stroke-miterlimit:4;stroke-dasharray:none;stroke-dashoffset:0;stroke-opacity:1;stop-color:#000000;stop-opacity:1"
       d="m 76.033508,105.9745 -18.668222,-4.58993 c -6.090429,1.52997 -12.445479,3.05995 -18.668218,4.58993 l 18.656668,-7.270138 z"
       id="path854-8"
       sodipodi:nodetypes="ccccc" />
    <rect
       y="-120.68723"
       x="37.520527"
       height="3.2072344"
       width="39.823158"
       id="rect833-1-4"
       style="fill:#cfcfcf;fill-opacity:1;stroke:#000000;stroke-width:0.206"
       transform="scale(1,-1)" />
    <path
       sodipodi:nodetypes="ccccc"
       id="path854-0-7"
       d="m 76.167138,109.84991 -18.668218,4.58993 c -6.090429,-1.52998 -12.445479,-3.05995 -18.668218,-4.58993 l 18.656668,7.27013 z"
       style="font-variation-settings:normal;opacity:1;vector-effect:none;fill:#cfcfcf;fill-opacity:1;stroke:#000000;stroke-width:0.105833;stroke-linecap:butt;stroke-linejoin:miter;stroke-miterlimit:4;stroke-dasharray:none;stroke-dashoffset:0;stroke-opacity:1;stop-color:#000000;stop-opacity:1" />
    <path
       style="font-variation-settings:normal;opacity:1;vector-effect:none;fill:#cfcfcf;fill-opacity:1;stroke:#000000;stroke-width:0.0718587;stroke-linecap:butt;stroke-linejoin:miter;stroke-miterlimit:4;stroke-dasharray:none;stroke-dashoffset:0;stroke-opacity:1;stop-color:#000000;stop-opacity:1"
       d="m 141.4756,108.48759 -8.5821,4.60292 c -2.79988,-1.53431 -5.7214,-3.06861 -8.58211,-4.60292 l 8.5768,7.2907 z"
       id="path854-0-5-6"
       sodipodi:nodetypes="ccccc" />
    <path
       style="font-variation-settings:normal;opacity:1;vector-effect:none;fill:#cfcfcf;fill-opacity:1;stroke:#000000;stroke-width:0.105833;stroke-linecap:butt;stroke-linejoin:miter;stroke-miterlimit:4;stroke-dasharray:none;stroke-dashoffset:0;stroke-opacity:1;stop-color:#000000;stop-opacity:1"
       d="m 131.29829,103.63581 c -0.251,-0.23054 -1.655,-0.64804 -2.69036,-0.64812 l -18.5708,-0.002 0.0126,-2.00902 c 4.22906,-0.13034 18.3408,-0.0576 18.63658,-0.0543 2.00832,0.0225 3.1844,0.33219 4.15853,0.98963 0.91362,0.6166 1.44474,1.60739 1.45242,2.93996 0.001,2.34782 -5.3e-4,6.14731 -5.3e-4,6.14731 h -2.19518 l 0.0722,-5.56117 c 0.0119,-0.91731 -0.54314,-1.49759 -0.87543,-1.80278 z"
       id="path906-9"
       sodipodi:nodetypes="ssccsscccss" />
  </g>
</svg>
